<?xml version="1.0" encoding="utf-8"?>
<!-- Generator: Adobe Illustrator 16.0.0, SVG Export Plug-In . SVG Version: 6.00 Build 0)  -->
<!DOCTYPE svg PUBLIC "-//W3C//DTD SVG 1.1//EN" "http://www.w3.org/Graphics/SVG/1.1/DTD/svg11.dtd">
<svg version="1.1" id="Layer_1" xmlns="http://www.w3.org/2000/svg" xmlns:xlink="http://www.w3.org/1999/xlink" x="0px" y="0px"
	 width="168px" height="38px" viewBox="0 0 1078.108 245.058" enable-background="new 0 0 1078.108 245.058"
	 xml:space="preserve">
<g>
	<path fill="#323232" d="M699.16,110.214h-3.554c-41.958,1.613-61.331,36.627-61.331,68.395c0,38.572,22.271,63.202,61.331,65.799
		c2.263,0,4.845,0.322,7.103,0.322c17.434,0,32.925-2.919,47.126-9.074l-6.776-26.258c-10.651,3.569-20.98,5.51-34.537,5.51
		c-4.517,0-8.716-0.645-12.915-1.623c-12.583-2.913-22.267-10.369-23.24-23.334h23.24h59.396c0.322-2.919,1.295-8.751,1.295-15.557
		C756.297,142.299,740.479,110.214,699.16,110.214z M695.606,162.725h-23.558c0.963-10.374,7.743-25.29,23.558-25.936h1.296
		c18.072,0,22.267,16.529,22.267,25.936H695.606z"/>
	<path fill="#323232" d="M479.343,182.495c0,18.475-5.813,29.494-19.691,29.821c-13.556-0.327-19.368-11.347-19.368-29.821v-69.368
		h-40.027v75.528c0,74.549,118.786,74.549,118.786,0v-75.528h-39.7V182.495z"/>
	<path fill="#323232" d="M586.51,138.085c10.646,0,22.271,4.214,28.079,7.133l12.588-25.931c-8.065-3.892-25.821-9.073-41.958-9.073
		c-31.956,0.645-52.292,18.146-52.292,42.459c-0.328,14.911,10.002,29.822,36.796,38.573c14.524,4.859,18.395,8.105,18.395,14.911
		c0,6.482-4.834,10.373-16.782,10.373c-11.942,0-27.434-4.864-34.537-9.4l-12.588,26.902c10.324,6.811,30.343,10.697,47.125,10.697
		c36.473,0,55.196-17.502,55.196-41.814c-0.322-18.475-10.329-31.117-34.537-39.545c-15.814-5.51-20.659-8.429-20.659-14.911
		C571.335,142.299,576.82,138.085,586.51,138.085z"/>
	<path fill="#323232" d="M877.014,165.961c0-30.468-13.561-55.747-56.164-55.747h-0.967c-22.923,0.317-40.996,6.154-52.293,12.637
		l10.652,24.634c8.394-5.187,22.271-9.4,35.51-9.4c2.259,0,4.194,0,6.131,0.327c14.201,1.623,17.104,10.047,17.104,16.202v1.623
		c-5.808,0-11.615,0.327-17.104,0.65c-35.511,3.886-58.105,19.447-58.105,48.296c0,20.743,15.496,39.546,41.641,39.546
		c5.813,0,11.297-0.646,16.465-2.269c8.07-2.591,14.846-7.128,20.008-13.615h0.973l2.259,12.965h35.833
		c-1.618-7.133-1.941-18.802-1.941-31.117V165.961z M838.283,195.138c0,2.263-0.328,4.536-0.646,6.805
		c-2.263,7.133-9.365,13.293-17.754,14.588h-2.904c-9.044,0-15.819-4.864-15.819-15.233c0-10.374,7.421-15.884,18.724-18.475
		c5.489-1.3,11.619-1.623,18.4-1.623V195.138z"/>
	<path fill="#323232" d="M932.538,189.628v-76.501h-39.063v82.661c0,18.146,3.871,30.467,10.975,37.922
		c6.779,6.806,17.432,11.02,30.342,11.02c10.976,0,24.536-1.94,29.703-3.887l-5.167-29.822
		C941.572,214.907,932.538,210.371,932.538,189.628z"/>
	<path fill="#323232" d="M1010.324,189.628v-76.501h-39.059v82.661c0,18.146,3.553,30.467,10.975,37.922
		c6.457,6.806,17.109,11.02,30.02,11.02c10.98,0,24.854-1.94,29.698-3.887l-5.163-29.822
		C1019.041,214.907,1010.324,210.371,1010.324,189.628z"/>
	<path fill="#323232" d="M115.882,90.761c24.858,0,44.867-20.421,44.867-45.383C160.749,20.42,140.74,0,115.882,0
		C90.706,0,70.693,20.42,70.693,45.378C70.693,70.34,90.706,90.761,115.882,90.761z"/>
	<path fill="#323232" d="M197.227,191.896c-19.368,0-41.318-37.604-55.519-52.838c-15.491-16.207-35.833-25.28-58.422-25.28
		C12.265,113.777,0,189.628,0,245.058h51.975c0.646-23.99-3.227-78.447,32.274-78.447c17.755,0,33.247,26.581,43.904,39.219
		c20.336,23.344,38.409,38.9,70.043,38.9c70.37,0,83.281-76.178,83.281-131.279h-51.97
		C228.861,137.762,231.765,191.896,197.227,191.896z"/>
	<path fill="#323232" d="M1071.333,119.938c-3.872-4.214-9.362-6.811-15.814-6.811c-6.136,0-11.62,2.596-15.819,6.811
		c-3.877,3.887-6.457,9.396-6.457,15.884c0,6.154,2.58,11.664,6.457,15.884c4.199,3.887,9.684,6.478,15.819,6.478
		c6.452,0,11.942-2.591,15.814-6.478c4.194-4.22,6.775-9.729,6.775-15.884C1078.108,129.334,1075.527,123.824,1071.333,119.938z
		 M1068.752,148.786c-3.555,3.236-8.071,5.183-13.233,5.183c-4.845,0-9.366-1.946-12.915-5.183
		c-3.227-3.568-5.162-8.11-5.162-12.965c0-5.192,1.936-9.729,5.162-13.293c3.549-3.246,8.07-5.187,12.915-5.187
		c5.162,0,9.679,1.941,13.233,5.187c3.227,3.564,5.162,8.101,5.162,13.293C1073.914,140.676,1071.979,145.218,1068.752,148.786z"/>
	<path fill="#323232" d="M1062.617,138.412c-0.646-0.65-1.613-1.296-2.582-1.95c1.936-0.323,3.549-0.969,4.84-2.264
		c0.973-1.296,1.291-2.592,1.291-4.542c0-1.296-0.318-2.591-0.963-3.887c-0.65-0.978-1.619-1.623-2.586-2.273
		c-1.291-0.317-3.227-0.645-5.809-0.645h-0.327h-9.679v23.985h4.844v-10.047h0.963c0.973,0,1.937,0.327,2.264,0.327
		c0.646,0.323,1.291,0.646,1.608,0.969c0.327,0.65,1.29,1.945,2.586,3.568l3.55,5.183h5.484l-2.898-4.537
		C1064.23,140.358,1063.262,139.058,1062.617,138.412z M1056.481,133.226h-1.29h-3.545v-6.16h3.545h1.29h2.264
		c0.968,0.327,1.613,0.645,1.936,0.973c0.323,0.65,0.646,1.296,0.646,1.945c0,0.646,0,1.296-0.322,1.941
		c-0.323,0.327-0.969,0.65-1.613,0.978C1059.067,132.902,1058.1,133.226,1056.481,133.226z"/>
</g>
</svg>
